<svg width="619" height="210" viewBox="0 0 619 210" fill="none" xmlns="http://www.w3.org/2000/svg">
<path d="M77.9869 0H209.274V145.362C209.274 162.341 202.532 178.624 190.532 190.629C178.532 202.635 162.256 209.38 145.285 209.38H0V78.0218C0 57.3291 8.21645 37.484 22.8418 22.8521C37.4672 8.22013 57.3035 0 77.9869 0Z" fill="url(#paint0_linear_68_177)"/>
<path d="M181.206 104.689C173.328 117.972 162.131 128.975 148.716 136.618C135.301 144.26 120.128 148.279 104.69 148.279C89.2524 148.279 74.0801 144.26 60.6647 136.618C47.2493 128.975 36.0524 117.972 28.1745 104.689C36.0524 91.4067 47.2493 80.4034 60.6647 72.7609C74.0801 65.1184 89.2524 61.0996 104.69 61.0996C120.128 61.0996 135.301 65.1184 148.716 72.7609C162.131 80.4034 173.328 91.4067 181.206 104.689Z" fill="white"/>
<path d="M105.39 134.538C121.881 134.538 135.249 121.164 135.249 104.666C135.249 88.1678 121.881 74.7935 105.39 74.7935C88.8995 74.7935 75.5312 88.1678 75.5312 104.666C75.5312 121.164 88.8995 134.538 105.39 134.538Z" fill="url(#paint1_linear_68_177)"/>
<path d="M124.786 103.906C130.565 103.906 135.249 99.2197 135.249 93.4385C135.249 87.6573 130.565 82.9707 124.786 82.9707C119.007 82.9707 114.323 87.6573 114.323 93.4385C114.323 99.2197 119.007 103.906 124.786 103.906Z" fill="white"/>
<path d="M251.553 76.7757L251.494 84.8936H236.072C233.766 84.9038 231.53 84.0964 229.761 82.6148C227.893 81.1347 226.56 79.0841 225.965 76.7757C225.801 76.1239 225.721 75.4539 225.728 74.7818L226.084 40.3639C226.032 39.5486 226.162 38.7319 226.463 37.9726C226.765 37.2133 227.231 36.5303 227.828 35.9727C229.078 34.8467 230.713 34.2436 232.395 34.2874H251.957L251.897 42.3459H235.954C234.862 42.3459 234.317 42.8563 234.317 43.8651L234.079 74.2596C234.06 74.4332 234.06 74.6083 234.079 74.7818C234.173 75.3689 234.483 75.8994 234.949 76.2686C235.414 76.6378 236.002 76.8187 236.594 76.7757H251.553Z" fill="white"/>
<path d="M285.137 76.7757V84.8936H268.078C265.723 85.0418 263.39 84.3617 261.483 82.9709C259.7 81.328 258.49 79.1568 258.03 76.7757C257.871 76.1234 257.795 75.4534 257.805 74.7818L257.924 55.1518C257.877 54.3421 258.002 53.5317 258.293 52.7745C258.583 52.0173 259.032 51.3308 259.608 50.7605C260.853 49.631 262.484 49.0234 264.164 49.0634H276.964C279.271 49.1076 281.503 49.8895 283.334 51.2946C285.28 52.6492 286.638 54.6947 287.13 57.015C287.13 57.4423 287.201 57.834 287.249 58.2019C287.285 58.529 287.305 58.8578 287.308 59.1869L287.415 62.6406C287.51 63.9481 287.149 65.2482 286.395 66.3198C285.625 67.3295 284.553 68.0658 283.334 68.4205L266.097 74.0935L266.157 75.5532V75.7906C266.202 76.0714 266.347 76.3266 266.565 76.5096C266.782 76.6926 267.059 76.7912 267.343 76.7876L285.137 76.7757ZM278.945 59.7092C278.956 59.529 278.936 59.3483 278.886 59.1751C278.754 58.6051 278.437 58.0951 277.983 57.7255C277.53 57.3559 276.967 57.1478 276.382 57.1338H267.794C266.667 57.1338 266.133 57.6441 266.216 58.6529V64.9075L278.079 60.9909C278.395 60.9121 278.671 60.7199 278.855 60.4508C279.038 60.1816 279.117 59.8543 279.075 59.5311L278.945 59.7092Z" fill="white"/>
<path d="M303.655 84.905C301.368 84.9063 299.154 84.0993 297.403 82.6263C295.539 81.1432 294.206 79.0939 293.607 76.7872C293.536 76.3955 293.465 76.0394 293.406 75.7309C293.349 75.4216 293.321 75.1077 293.323 74.7933L293.667 49.1342H301.971L301.733 75.5885L301.793 75.8258C301.838 76.1067 301.983 76.3618 302.201 76.5448C302.418 76.7278 302.695 76.8264 302.979 76.8227H316.633L316.918 49.1697H325.293L324.89 84.9406L303.655 84.905ZM299.859 36.625C300.606 36.9454 301.413 37.2422 302.291 37.5389C303.169 37.8356 304.047 38.0967 304.948 38.3221C305.85 38.5476 306.704 38.7495 307.546 38.9038C308.304 39.0584 309.075 39.1378 309.848 39.1411C311.627 39.1286 313.398 38.8852 315.115 38.4171C316.795 37.9815 318.434 37.4018 320.014 36.6843L319.836 41.8352C318.947 42.298 318.104 42.6897 317.333 43.022C316.562 43.333 315.769 43.5869 314.961 43.7816C314.182 43.9831 313.389 44.122 312.588 44.1969C311.769 44.2682 310.892 44.3157 309.954 44.3157C308.244 44.2787 306.546 44.0234 304.901 43.5561C303.103 43.0779 301.337 42.4914 299.61 41.7996L299.859 36.625Z" fill="white"/>
<path d="M331.225 84.905L331.509 49.3003L350.905 49.3597C352.248 49.3471 353.578 49.6223 354.806 50.1669C356.034 50.7114 357.131 51.5126 358.023 52.5166C359.316 53.839 360.244 55.4749 360.716 57.2639C360.819 57.6243 360.887 57.994 360.918 58.3676C360.918 58.7237 360.918 59.0916 361.001 59.4833V63.2218C361.021 63.9976 360.886 64.7696 360.605 65.4929C360.324 66.2163 359.902 66.8764 359.363 67.435C359.919 68.3353 360.32 69.3221 360.55 70.3546C360.714 71.0235 360.81 71.7075 360.834 72.3959V78.8879C360.837 79.7007 360.679 80.5059 360.37 81.2575C360.06 82.009 359.605 82.692 359.031 83.2672C357.796 84.4119 356.159 85.022 354.476 84.9644L331.225 84.905ZM350.798 76.7753C351.925 76.7753 352.459 76.2649 352.376 75.2561V73.7845C352.355 73.1563 352.106 72.5573 351.676 72.0992C351.178 71.6051 350.515 71.3134 349.814 71.2803C349.494 71.2803 349.316 71.2803 349.28 71.2803L339.647 74.5441V76.7753H350.798ZM351.558 61.4534C351.877 61.3954 352.163 61.219 352.359 60.9595C352.555 60.7001 352.646 60.3764 352.613 60.0529L352.495 58.5931C352.495 58.429 352.462 58.2665 352.396 58.1159C352.331 57.9654 352.235 57.8301 352.115 57.7185C351.994 57.607 351.852 57.5216 351.697 57.4679C351.542 57.4142 351.377 57.3932 351.214 57.4063H339.766L339.707 65.4055L351.558 61.4534Z" fill="white"/>
<path d="M387.953 84.9055L388.309 42.4172H375.568L375.106 84.9055H366.802L367.323 34.2993H396.827L396.352 84.9055H387.953Z" fill="white"/>
<path d="M402.794 76.8346H406.352L406.471 55.2107C406.44 54.3983 406.58 53.5885 406.883 52.834C407.185 52.0795 407.643 51.3971 408.227 50.8313C409.471 49.7018 411.102 49.0942 412.782 49.1342H431.822V50.5702C431.822 51.0568 431.822 51.757 431.822 52.6709C431.822 53.5847 431.822 54.8072 431.822 56.3263C431.822 57.8455 431.822 59.8868 431.763 62.3791C431.704 64.8714 431.763 67.9809 431.763 71.6363V84.905H423.4L423.577 57.2046H416.4C415.309 57.2046 414.799 57.7149 414.87 58.7237L414.704 84.905H402.722L402.794 76.8346Z" fill="white"/>
<path d="M465.003 76.7759V84.8938H447.944C445.589 85.042 443.255 84.3618 441.348 82.971C439.569 81.325 438.36 79.1552 437.896 76.7759C437.736 76.1236 437.661 75.4535 437.671 74.782L437.789 55.152C437.742 54.3423 437.868 53.5319 438.159 52.7747C438.449 52.0175 438.897 51.3309 439.474 50.7607C440.722 49.6294 442.357 49.0217 444.041 49.0635H456.829C459.136 49.1078 461.369 49.8897 463.2 51.2948C465.146 52.6494 466.503 54.6949 466.996 57.0152C466.996 57.4425 467.067 57.8341 467.114 58.202C467.151 58.5292 467.171 58.858 467.174 59.1871L467.292 62.6408C467.378 63.9491 467.014 65.2473 466.26 66.3199C465.491 67.3297 464.418 68.066 463.2 68.4206L445.963 74.0936V75.5534L446.022 75.7908C446.068 76.0716 446.212 76.3268 446.43 76.5098C446.648 76.6928 446.924 76.7914 447.208 76.7877L465.003 76.7759ZM458.81 59.7093C458.822 59.5292 458.801 59.3485 458.751 59.1752C458.62 58.6053 458.302 58.0953 457.849 57.7257C457.396 57.3561 456.833 57.1479 456.248 57.1339H447.659C446.532 57.1339 445.998 57.6442 446.081 58.653V64.9076L457.944 60.9911C458.26 60.9122 458.535 60.7195 458.716 60.45C458.898 60.1805 458.974 59.8533 458.929 59.5313L458.81 59.7093Z" fill="white"/>
<path d="M483.521 84.905C481.237 84.9086 479.026 84.1011 477.281 82.6263C475.409 81.1474 474.072 79.0969 473.473 76.7872C473.402 76.3955 473.331 76.0394 473.271 75.7309C473.214 75.4216 473.186 75.1077 473.188 74.7933L473.532 49.1342H481.836L481.599 75.5528L481.658 75.7902C481.704 76.071 481.849 76.3262 482.066 76.5092C482.284 76.6922 482.56 76.7908 482.845 76.7872H496.463L496.748 49.1342H505.159L504.755 84.905H483.521ZM479.725 36.625C480.472 36.9454 481.279 37.2422 482.157 37.5389C483.034 37.8356 483.912 38.0967 484.814 38.3221C485.715 38.5476 486.57 38.7495 487.412 38.9038C488.169 39.0577 488.94 39.1371 489.713 39.1411C491.493 39.1294 493.263 38.886 494.98 38.4171C496.66 37.9815 498.299 37.4018 499.88 36.6843L499.714 41.8352C498.812 42.298 497.97 42.6897 497.199 43.022C496.428 43.333 495.635 43.5869 494.826 43.7816C494.048 43.9831 493.254 44.122 492.454 44.1969C491.635 44.2682 490.757 44.3157 489.82 44.3157C488.11 44.2787 486.412 44.0234 484.766 43.5561C482.973 43.078 481.21 42.4914 479.487 41.7996L479.725 36.625Z" fill="white"/>
<path d="M231.446 132.995H227.199L227.412 110.517C227.412 109.685 227.74 108.887 228.326 108.297C228.939 107.725 229.753 107.418 230.592 107.443H242.454L242.253 132.995H238.03V121.839H231.505L231.446 132.995ZM238.089 117.863L238.208 111.549H232.276C232.17 111.537 232.063 111.548 231.962 111.581C231.86 111.614 231.767 111.669 231.689 111.74C231.61 111.812 231.548 111.9 231.506 111.998C231.464 112.096 231.443 112.202 231.446 112.309L231.386 117.863H238.089Z" fill="#937EB5"/>
<path d="M256.073 128.307H250.64C249.475 128.291 248.351 127.872 247.461 127.121C246.521 126.381 245.846 125.357 245.539 124.201C245.463 123.862 245.427 123.516 245.432 123.169V118.421C245.414 117.959 245.498 117.499 245.676 117.073C245.854 116.647 246.123 116.264 246.464 115.953C246.806 115.629 247.208 115.376 247.648 115.209C248.088 115.042 248.556 114.964 249.026 114.979H260.379L260.178 132.639C260.173 133.47 259.846 134.266 259.264 134.859C258.614 135.441 257.763 135.748 256.892 135.713H247.022L247.081 131.607H255.1C255.198 131.622 255.298 131.616 255.394 131.589C255.489 131.562 255.577 131.515 255.653 131.451C255.728 131.387 255.789 131.307 255.831 131.217C255.873 131.127 255.895 131.029 255.895 130.93L256.073 128.307ZM256.073 124.237V119.098H250.557C250.45 119.086 250.342 119.097 250.239 119.131C250.137 119.164 250.043 119.22 249.965 119.293C249.886 119.366 249.824 119.455 249.783 119.555C249.741 119.654 249.722 119.762 249.726 119.869V123.584V123.703C249.741 123.856 249.815 123.997 249.933 124.097C250.05 124.196 250.202 124.247 250.355 124.237H256.073Z" fill="#937EB5"/>
<path d="M274.14 119.656C274.122 119.491 274.043 119.339 273.917 119.231C273.791 119.123 273.63 119.067 273.464 119.074H264.531V115.003H273.096C274.26 115.024 275.382 115.443 276.276 116.19C277.219 116.929 277.891 117.96 278.186 119.122C278.233 119.335 278.269 119.525 278.292 119.691C278.323 119.844 278.323 120.001 278.292 120.154L278.209 133.067H263.357L263.416 126.812C263.366 126.17 263.541 125.531 263.911 125.005C264.282 124.478 264.824 124.098 265.445 123.928L274.117 121.068L274.14 119.656ZM268.102 127.619C267.952 127.666 267.822 127.762 267.732 127.89C267.642 128.019 267.597 128.174 267.604 128.331V128.925H274.034V125.614L268.102 127.619Z" fill="#937EB5"/>
<path d="M285.671 119.015L285.529 133.02H281.317L281.519 114.944H292.077C293.241 114.965 294.363 115.384 295.256 116.131C296.199 116.873 296.874 117.902 297.178 119.063C297.26 119.401 297.299 119.747 297.297 120.095L297.178 133.067H292.955L293.109 119.704V119.585C293.083 119.429 292.999 119.288 292.873 119.191C292.748 119.094 292.591 119.049 292.433 119.063L285.671 119.015Z" fill="#937EB5"/>
<path d="M314.545 119.039L314.486 133.019H310.263L310.322 119.039H304.545L304.462 133.019H300.239L300.393 114.968H319.374C320.539 114.982 321.663 115.402 322.553 116.155C323.496 116.886 324.165 117.915 324.451 119.074C324.533 119.413 324.58 119.759 324.593 120.107L324.534 133.055H320.323V119.727C320.335 119.688 320.335 119.647 320.323 119.608C320.292 119.451 320.205 119.311 320.078 119.213C319.952 119.115 319.794 119.065 319.635 119.074L314.545 119.039Z" fill="#937EB5"/>
<path d="M332.731 133.019C331.572 133.011 330.454 132.59 329.576 131.832C328.637 131.085 327.966 130.052 327.666 128.889C327.666 128.683 327.63 128.505 327.559 128.355C327.547 128.197 327.547 128.038 327.559 127.88L327.725 114.932H331.913L331.794 128.272V128.379C331.817 128.524 331.893 128.657 332.006 128.751C332.12 128.845 332.264 128.894 332.411 128.889H339.28L339.434 114.932H343.681L343.467 132.984L332.731 133.019Z" fill="#937EB5"/>
<path d="M346.646 133.02L346.801 115.027H356.588C357.26 115.027 357.926 115.169 358.539 115.446C359.153 115.722 359.701 116.125 360.146 116.63C360.798 117.288 361.264 118.107 361.499 119.003C361.555 119.185 361.591 119.372 361.606 119.561C361.606 119.739 361.606 119.929 361.606 120.119V122.018C361.616 122.408 361.55 122.797 361.409 123.162C361.269 123.527 361.057 123.86 360.787 124.142C361.074 124.594 361.283 125.092 361.404 125.614C361.487 125.952 361.535 126.298 361.546 126.646V129.922C361.548 130.332 361.468 130.738 361.311 131.117C361.154 131.496 360.924 131.84 360.633 132.13C360.008 132.707 359.181 133.014 358.331 132.984L346.646 133.02ZM356.552 128.925C357.121 128.925 357.394 128.664 357.347 128.154V127.418C357.338 127.101 357.216 126.798 357.003 126.563C356.746 126.316 356.409 126.169 356.054 126.148C355.9 126.148 355.805 126.148 355.793 126.148L350.893 127.809V128.901L356.552 128.925ZM356.943 121.187C357.103 121.158 357.245 121.07 357.342 120.94C357.439 120.81 357.483 120.648 357.465 120.487L357.406 119.751C357.412 119.666 357.399 119.582 357.368 119.502C357.338 119.423 357.29 119.352 357.229 119.293C357.168 119.235 357.095 119.19 357.015 119.162C356.935 119.135 356.85 119.125 356.766 119.134H350.976V123.169L356.943 121.187Z" fill="#937EB5"/>
<path d="M375.284 133.019V125.792H368.854L368.759 133.019H364.548L364.726 114.968H368.937L369.032 121.697H375.343V114.968H379.554L379.412 133.019H375.284Z" fill="#937EB5"/>
<path d="M386.98 119.015H392.402C393.566 119.036 394.688 119.455 395.581 120.202C396.528 120.933 397.194 121.968 397.467 123.133C397.568 123.467 397.608 123.817 397.586 124.166L397.527 129.613C397.545 130.077 397.462 130.539 397.284 130.967C397.106 131.396 396.836 131.78 396.494 132.094C396.163 132.421 395.767 132.676 395.332 132.843C394.898 133.011 394.433 133.087 393.968 133.067H382.615L382.734 114.98H386.98V119.015ZM386.98 123.086V128.925H392.615C392.72 128.935 392.826 128.923 392.926 128.888C393.026 128.854 393.116 128.798 393.192 128.724C393.268 128.651 393.327 128.561 393.364 128.463C393.402 128.364 393.418 128.259 393.41 128.153L393.493 123.727V123.608C393.465 123.457 393.383 123.322 393.264 123.226C393.144 123.13 392.994 123.08 392.841 123.086H386.98ZM403.933 133.019H399.674L399.816 114.968H404.039L403.933 133.019Z" fill="#937EB5"/>
<path d="M412.201 133.019C411.041 133.013 409.922 132.592 409.045 131.833C408.103 131.088 407.432 130.053 407.136 128.889C407.088 128.683 407.052 128.505 407.029 128.355C407.016 128.197 407.016 128.038 407.029 127.88L407.207 114.932H411.394L411.276 128.272V128.379C411.296 128.526 411.371 128.659 411.485 128.754C411.599 128.848 411.745 128.897 411.893 128.889H418.761L418.915 114.932H423.15L422.949 132.984L412.201 133.019ZM410.291 108.654C410.659 108.808 411.074 108.962 411.477 109.117C411.881 109.271 412.367 109.39 412.818 109.508C413.269 109.627 413.708 109.722 414.135 109.805C414.525 109.884 414.923 109.924 415.321 109.924C416.215 109.919 417.105 109.795 417.966 109.556C418.815 109.336 419.645 109.046 420.446 108.689L420.363 111.277C419.951 111.497 419.527 111.695 419.093 111.87C418.707 112.023 418.31 112.149 417.907 112.25C417.518 112.351 417.121 112.423 416.721 112.464C416.306 112.464 415.867 112.464 415.392 112.464C414.528 112.446 413.671 112.315 412.842 112.072C411.935 111.835 411.043 111.541 410.172 111.194L410.291 108.654Z" fill="#937EB5"/>
<path d="M447.612 118.16H447.671C448.325 118.165 448.975 118.257 449.605 118.433C450.254 118.598 450.864 118.893 451.396 119.3C451.989 119.783 452.473 120.386 452.819 121.069C453.164 121.752 453.362 122.499 453.401 123.264V129.566C453.422 130.027 453.342 130.488 453.168 130.916C452.994 131.345 452.73 131.73 452.393 132.046C452.054 132.374 451.652 132.63 451.212 132.797C450.771 132.964 450.301 133.04 449.83 133.019H447.458V135.761H443.27V133.019C442.952 133.018 442.635 132.994 442.321 132.948C441.975 132.9 441.634 132.825 441.301 132.723C440.965 132.629 440.636 132.514 440.316 132.378C440.016 132.249 439.736 132.077 439.486 131.868C438.543 131.123 437.872 130.089 437.576 128.925C437.491 128.596 437.451 128.256 437.457 127.916V121.222C437.443 120.814 437.513 120.406 437.665 120.026C437.816 119.647 438.044 119.302 438.335 119.015C438.964 118.445 439.788 118.14 440.636 118.16H443.436V114.968H447.624L447.612 118.16ZM443.377 122.219H442.428C442.323 122.209 442.217 122.221 442.117 122.256C442.017 122.29 441.927 122.346 441.851 122.42C441.775 122.493 441.716 122.583 441.679 122.681C441.641 122.78 441.625 122.885 441.633 122.991V127.655C441.62 127.741 441.62 127.83 441.633 127.916C441.666 128.073 441.749 128.214 441.87 128.32C442.002 128.433 442.145 128.533 442.297 128.616C442.46 128.701 442.631 128.768 442.807 128.818L443.282 128.925L443.377 122.219ZM447.529 128.925H448.418C448.964 128.925 449.213 128.664 449.178 128.153V122.753C449.152 122.596 449.068 122.454 448.943 122.356C448.818 122.257 448.66 122.208 448.502 122.219H447.552L447.529 128.925Z" fill="#937EB5"/>
<path d="M470.614 132.663C470.615 133.495 470.286 134.293 469.701 134.883C469.052 135.467 468.2 135.774 467.328 135.737H457.446L457.505 131.631H465.525C466.023 131.631 466.284 131.405 466.32 130.954L466.438 128.308H461.017C459.848 128.292 458.721 127.873 457.826 127.121C456.889 126.381 456.218 125.356 455.916 124.201C455.83 123.864 455.79 123.517 455.797 123.169L455.857 114.861H460.068V123.501V123.62C460.08 123.772 460.151 123.913 460.267 124.013C460.382 124.113 460.532 124.163 460.685 124.154H466.462L466.521 114.861L470.804 114.92L470.614 132.663Z" fill="#937EB5"/>
<path d="M484.47 133.019V125.792H478.04L477.945 133.019H473.734L473.912 114.968H478.123L478.218 121.697H484.529L484.588 114.968H488.8L488.657 133.019H484.47Z" fill="#937EB5"/>
<path d="M502.49 133.02V127.24C502.49 127.24 502.49 127.133 502.49 126.979C502.445 126.681 502.29 126.411 502.054 126.224C501.818 126.036 501.52 125.946 501.22 125.97H496.119L496.024 133.02H491.813L492.465 114.944H496.677L496.238 121.875H500.283C500.793 121.875 501.054 121.65 501.078 121.223L501.719 114.968H506.12L505.942 118.802H505.527L505.147 123.466C505.857 124.15 506.365 125.017 506.618 125.97C506.618 126.168 506.654 126.346 506.725 126.504C506.749 126.661 506.749 126.821 506.725 126.979V133.02H502.49Z" fill="#937EB5"/>
<path d="M514.103 114.909L513.985 128.925H520.414L520.569 114.909H524.78L524.661 129.008H527.876L527.698 135.263H524.021L524.104 133.02H509.714L509.892 114.909H514.103Z" fill="#937EB5"/>
<path d="M536.05 133.019C534.89 133.015 533.77 132.594 532.894 131.832C531.948 131.089 531.273 130.055 530.972 128.889C530.972 128.683 530.937 128.505 530.866 128.355C530.854 128.197 530.854 128.038 530.866 127.88L531.044 114.932H535.231L535.113 128.272V128.379C535.136 128.524 535.211 128.657 535.325 128.751C535.438 128.845 535.582 128.894 535.73 128.889H542.598L542.752 114.932H546.999L546.798 132.984L536.05 133.019Z" fill="#937EB5"/>
<path d="M549.989 118.005C549.963 117.594 550.029 117.183 550.183 116.801C550.337 116.418 550.575 116.076 550.879 115.798C551.508 115.228 552.332 114.923 553.18 114.943H559.633C560.793 114.952 561.911 115.373 562.789 116.13C563.732 116.872 564.406 117.901 564.711 119.062C564.794 119.4 564.842 119.746 564.853 120.094L564.794 129.589C564.817 130.05 564.739 130.51 564.567 130.938C564.395 131.367 564.133 131.752 563.797 132.069C563.457 132.398 563.053 132.654 562.61 132.822C562.168 132.989 561.696 133.064 561.223 133.042H555.149C553.983 133.032 552.858 132.612 551.97 131.856C551.024 131.112 550.348 130.078 550.048 128.912C549.969 128.582 549.929 128.243 549.929 127.904L549.989 118.005ZM554.153 127.654C554.146 127.741 554.146 127.829 554.153 127.915C554.197 128.22 554.358 128.496 554.601 128.684C554.845 128.872 555.152 128.958 555.458 128.924H559.788C560.333 128.924 560.594 128.663 560.559 128.153L560.618 119.655V119.501C560.587 119.347 560.501 119.21 560.377 119.114C560.253 119.018 560.098 118.97 559.942 118.979H554.947C554.378 118.979 554.117 119.228 554.153 119.738V127.654Z" fill="#937EB5"/>
<path d="M578.507 133.019V125.792H572.089L571.995 133.019H567.783L567.961 114.968H572.172L572.267 121.697H578.567L578.626 114.968H582.849L582.719 133.019H578.507Z" fill="#937EB5"/>
<path d="M596.61 119.656C596.592 119.491 596.513 119.339 596.387 119.231C596.261 119.123 596.099 119.067 595.934 119.074H587.001V115.003H595.554C596.722 115.025 597.848 115.443 598.746 116.19C599.682 116.935 600.352 117.964 600.655 119.122C600.655 119.335 600.691 119.525 600.762 119.691C600.786 119.845 600.786 120.001 600.762 120.154L600.679 133.067H585.815L585.874 126.812C585.827 126.169 586.005 125.53 586.377 125.004C586.749 124.478 587.293 124.097 587.915 123.928L596.586 121.068L596.61 119.656ZM590.572 127.619C590.422 127.668 590.291 127.763 590.199 127.891C590.108 128.019 590.059 128.174 590.062 128.331V128.925H596.492V125.614L590.572 127.619Z" fill="#937EB5"/>
<path d="M603.87 128.996H605.661V118.089C605.646 117.677 605.717 117.267 605.87 116.884C606.023 116.502 606.255 116.156 606.551 115.869C607.179 115.298 608.004 114.992 608.853 115.015H618.462V115.739C618.462 115.988 618.462 116.332 618.462 116.795C618.462 117.258 618.462 117.875 618.462 118.647C618.462 119.418 618.462 120.427 618.462 121.697C618.462 122.967 618.462 124.521 618.462 126.373V133.067H614.238L614.321 119.086H610.763C610.205 119.086 609.956 119.347 609.991 119.857L609.908 133.067H603.858L603.87 128.996Z" fill="#937EB5"/>
<path d="M237.852 163.699H232.418C231.252 163.69 230.126 163.27 229.239 162.512C228.299 161.773 227.625 160.748 227.317 159.592C227.236 159.254 227.197 158.907 227.199 158.56V153.812C227.181 153.349 227.264 152.887 227.442 152.459C227.62 152.031 227.889 151.646 228.231 151.332C228.572 151.008 228.975 150.756 229.414 150.589C229.854 150.422 230.323 150.344 230.793 150.359H242.146L241.944 168.031C241.94 168.861 241.612 169.657 241.031 170.25C240.381 170.832 239.53 171.139 238.658 171.104H228.788V166.998H236.808C236.905 167.011 237.004 167.004 237.099 166.976C237.194 166.949 237.281 166.902 237.356 166.838C237.431 166.774 237.492 166.695 237.534 166.606C237.577 166.517 237.6 166.42 237.602 166.322L237.852 163.699ZM237.852 159.628L237.911 154.501H232.276C232.17 154.489 232.063 154.5 231.962 154.533C231.86 154.566 231.767 154.62 231.688 154.692C231.61 154.764 231.547 154.852 231.506 154.95C231.464 155.048 231.443 155.154 231.446 155.26V158.987V159.106C231.463 159.255 231.537 159.391 231.651 159.488C231.766 159.585 231.913 159.635 232.062 159.628H237.852Z" fill="#937EB5"/>
<path d="M245.219 164.352H246.998V153.433C246.981 153.024 247.051 152.616 247.202 152.236C247.354 151.856 247.583 151.511 247.876 151.226C248.505 150.656 249.329 150.35 250.177 150.371H259.786V151.095C259.786 151.344 259.786 151.688 259.786 152.151C259.786 152.614 259.786 153.231 259.786 154.003C259.786 154.774 259.786 155.783 259.786 157.053C259.786 158.323 259.786 159.878 259.786 161.729V168.423H255.575L255.658 154.442H252.028C251.482 154.442 251.221 154.691 251.269 155.201L251.174 168.423H245.135L245.219 164.352Z" fill="#937EB5"/>
<path d="M273.583 162.369L267.651 164.351C267.499 164.395 267.366 164.489 267.275 164.619C267.185 164.749 267.141 164.906 267.153 165.064L267.094 168.422H262.847L262.965 163.497C262.947 162.713 263.232 161.952 263.76 161.373C263.488 160.896 263.269 160.39 263.108 159.865C263.108 159.675 263.036 159.497 263.013 159.331C262.989 159.178 262.989 159.022 263.013 158.868L263.167 153.409C263.322 153.027 263.433 152.629 263.499 152.222C263.569 151.833 263.76 151.476 264.045 151.201C264.671 150.627 265.497 150.32 266.346 150.347H278.031C278.031 150.964 278.031 151.332 278.031 151.474C278.031 151.617 278.031 151.664 278.031 151.617V151.462C278.031 151.391 278.031 151.462 278.031 151.617C278.031 151.771 278.031 152.175 278.031 152.804C278.031 153.433 278.031 154.299 278.031 155.557C278.031 156.815 278.031 158.488 278.031 160.577C278.031 162.666 278.031 165.325 277.972 168.482H273.784L273.583 162.369ZM273.761 154.406H268.102C267.533 154.406 267.26 154.667 267.307 155.177C267.307 155.866 267.307 156.364 267.248 156.744C267.189 157.124 267.248 157.361 267.248 157.527C267.248 157.693 267.248 157.8 267.248 157.859V158.097C267.241 158.184 267.241 158.271 267.248 158.358C267.286 158.667 267.445 158.948 267.689 159.141C267.933 159.335 268.243 159.424 268.553 159.39C268.641 159.379 268.729 159.36 268.814 159.331L273.678 157.717L273.761 154.406Z" fill="#937EB5"/>
<path d="M297.237 154.406L297.083 168.422H292.872L293.073 150.335H303.631C304.799 150.357 305.924 150.776 306.823 151.522C307.756 152.265 308.425 153.289 308.733 154.441C308.818 154.779 308.858 155.126 308.851 155.474L308.733 168.458H304.521L304.664 155.094V154.975C304.632 154.818 304.546 154.678 304.419 154.58C304.293 154.482 304.135 154.433 303.976 154.441L297.237 154.406Z" fill="#937EB5"/>
<path d="M311.888 164.351H313.691V153.432C313.677 153.024 313.748 152.616 313.899 152.237C314.05 151.857 314.278 151.512 314.569 151.225C314.894 150.926 315.276 150.696 315.692 150.547C316.107 150.398 316.548 150.334 316.989 150.359H326.598V151.082C326.598 151.332 326.598 151.676 326.598 152.139C326.598 152.602 326.598 153.219 326.598 153.99C326.598 154.762 326.598 155.77 326.598 157.04C326.598 158.31 326.598 159.865 326.598 161.716V168.41H322.387L322.47 154.429H318.84C318.294 154.429 318.033 154.679 318.081 155.189L317.986 168.41H311.947L311.888 164.351Z" fill="#937EB5"/>
<path d="M343.289 164.328V168.422H334.701C333.513 168.498 332.338 168.154 331.379 167.449C330.479 166.622 329.868 165.528 329.635 164.328C329.55 163.998 329.51 163.659 329.516 163.319V153.409C329.493 152.999 329.557 152.59 329.704 152.207C329.852 151.824 330.079 151.477 330.371 151.19C331 150.62 331.824 150.314 332.672 150.335H339.125C340.29 150.359 341.416 150.754 342.34 151.462C343.321 152.147 344.008 153.177 344.262 154.346C344.262 154.572 344.262 154.762 344.321 154.94C344.381 155.118 344.321 155.284 344.321 155.438L344.381 157.183C344.424 157.844 344.245 158.5 343.871 159.046C343.476 159.552 342.932 159.921 342.317 160.103L333.621 162.963V163.699V163.817C333.646 163.962 333.722 164.093 333.836 164.186C333.949 164.28 334.091 164.33 334.238 164.328H343.289ZM340.169 155.711C340.185 155.621 340.185 155.529 340.169 155.438C340.1 155.151 339.938 154.895 339.708 154.708C339.479 154.522 339.195 154.416 338.9 154.406H334.57C334.001 154.406 333.74 154.667 333.775 155.177V158.334L339.766 156.352C339.924 156.31 340.061 156.213 340.153 156.078C340.244 155.942 340.284 155.779 340.264 155.616L340.169 155.711Z" fill="#937EB5"/>
<path d="M361.226 164.328V168.422H352.578C351.387 168.5 350.207 168.155 349.245 167.449C348.345 166.622 347.734 165.528 347.501 164.328C347.415 163.998 347.376 163.659 347.382 163.319L347.441 153.409C347.418 152.999 347.482 152.59 347.629 152.207C347.776 151.824 348.004 151.477 348.296 151.19C348.925 150.62 349.749 150.314 350.597 150.335H357.05C358.215 150.356 359.342 150.752 360.265 151.462C361.246 152.147 361.933 153.177 362.187 154.346C362.187 154.572 362.187 154.762 362.246 154.94C362.258 155.106 362.258 155.272 362.246 155.438L362.306 157.183C362.355 157.844 362.175 158.502 361.795 159.046C361.403 159.555 360.859 159.925 360.241 160.103L351.546 162.963V163.699V163.817C351.571 163.962 351.647 164.093 351.76 164.186C351.873 164.28 352.016 164.33 352.163 164.328H361.226ZM358.094 155.711C358.11 155.621 358.11 155.529 358.094 155.438C358.027 155.152 357.867 154.896 357.64 154.709C357.413 154.523 357.131 154.416 356.837 154.406H352.459C351.89 154.406 351.629 154.667 351.665 155.177V158.334L357.596 156.352C357.757 156.315 357.897 156.219 357.99 156.082C358.082 155.946 358.119 155.779 358.094 155.616V155.711Z" fill="#937EB5"/>
<path d="M365.556 150.358H375.117C376.294 150.37 377.43 150.79 378.332 151.545C379.28 152.27 379.947 153.302 380.218 154.465C380.314 154.8 380.354 155.149 380.337 155.497L380.218 162.725C380.27 163.364 380.098 164 379.733 164.526C379.367 165.052 378.83 165.435 378.214 165.609L369.518 168.505V171.163H365.271L365.556 150.358ZM369.589 163.805L375.58 161.835C375.732 161.792 375.865 161.697 375.956 161.568C376.047 161.438 376.09 161.281 376.078 161.123L376.173 155.082C376.126 154.921 376.054 154.769 375.96 154.631C375.906 154.567 375.839 154.516 375.763 154.481C375.687 154.446 375.604 154.429 375.521 154.429H369.708L369.589 163.805Z" fill="#937EB5"/>
<path d="M394.157 155.106C394.14 154.94 394.06 154.787 393.935 154.677C393.81 154.568 393.648 154.509 393.481 154.513H384.608V150.442H393.161C394.325 150.462 395.447 150.881 396.34 151.629C397.28 152.368 397.955 153.393 398.262 154.548C398.262 154.774 398.333 154.964 398.369 155.13C398.392 155.279 398.392 155.431 398.369 155.581L398.274 168.505H383.422V162.227C383.372 161.584 383.549 160.943 383.921 160.417C384.294 159.89 384.839 159.51 385.462 159.343L394.122 156.471L394.157 155.106ZM388.107 163.07C387.957 163.117 387.827 163.212 387.737 163.341C387.647 163.47 387.602 163.625 387.609 163.782V164.375H394.098V161.04L388.107 163.07Z" fill="#937EB5"/>
<defs>
<linearGradient id="paint0_linear_68_177" x1="0" y1="104.69" x2="209.274" y2="104.69" gradientUnits="userSpaceOnUse">
<stop stop-color="#6000E2"/>
<stop offset="0.63" stop-color="#881FE4"/>
<stop offset="1" stop-color="#9A2EE5"/>
</linearGradient>
<linearGradient id="paint1_linear_68_177" x1="75.5312" y1="104.666" x2="135.249" y2="104.666" gradientUnits="userSpaceOnUse">
<stop stop-color="#6000E2"/>
<stop offset="0.63" stop-color="#881FE4"/>
<stop offset="1" stop-color="#9A2EE5"/>
</linearGradient>
</defs>
</svg>
