<svg width="111" height="111" viewBox="0 0 111 111" fill="none" xmlns="http://www.w3.org/2000/svg">
<path d="M55.4998 108.931C85.0087 108.931 108.93 85.0089 108.93 55.5C108.93 25.9911 85.0087 2.06934 55.4998 2.06934C25.9908 2.06934 2.06909 25.9911 2.06909 55.5C2.06909 85.0089 25.9908 108.931 55.4998 108.931Z" fill="#7A14E3"/>
<path d="M83.25 27.75H27.75C23.9339 27.75 20.8125 30.8732 20.8125 34.6875V76.3125C20.8125 80.1268 23.9339 83.25 27.75 83.25H83.25C87.0643 83.25 90.1875 80.1268 90.1875 76.3125V34.6875C90.1875 30.8732 87.0643 27.75 83.25 27.75ZM83.25 76.3125H76.3125V45.7882L55.5 58.9688L34.6875 45.7882V76.3125H27.75V34.6875H31.9132L55.5 49.2569L79.0868 34.6875H83.25V76.3125Z" fill="black"/>
</svg>
