<svg width="315" height="314" viewBox="0 0 315 314" fill="none" xmlns="http://www.w3.org/2000/svg">
<path d="M117.055 0H314.113V217.995C314.113 243.457 303.994 267.876 285.982 285.881C267.97 303.885 243.541 314 218.068 314H0V117.007C0 85.9747 12.3326 56.2136 34.2848 34.2705C56.2369 12.3275 86.0104 0 117.055 0Z" fill="url(#paint0_linear_68_84)"/>
<path d="M269.096 157C257.561 176.197 241.166 192.1 221.522 203.146C201.878 214.192 179.662 220 157.056 220C134.451 220 112.235 214.192 92.5907 203.146C72.9468 192.1 56.5515 176.197 45.0161 157C56.5515 137.803 72.9468 121.9 92.5907 110.854C112.235 99.8083 134.451 94 157.056 94C179.662 94 201.878 99.8083 221.522 110.854C241.166 121.9 257.561 137.803 269.096 157Z" fill="white"/>
<path d="M159.057 203C183.366 203 203.073 182.405 203.073 157C203.073 131.595 183.366 111 159.057 111C134.748 111 115.041 131.595 115.041 157C115.041 182.405 134.748 203 159.057 203Z" fill="url(#paint1_linear_68_84)"/>
<path d="M187.567 156C196.131 156 203.073 149.956 203.073 142.5C203.073 135.044 196.131 129 187.567 129C179.004 129 172.062 135.044 172.062 142.5C172.062 149.956 179.004 156 187.567 156Z" fill="white"/>
<defs>
<linearGradient id="paint0_linear_68_84" x1="0" y1="157" x2="314.113" y2="157" gradientUnits="userSpaceOnUse">
<stop stop-color="#6000E2"/>
<stop offset="0.63" stop-color="#881FE4"/>
<stop offset="1" stop-color="#9A2EE5"/>
</linearGradient>
<linearGradient id="paint1_linear_68_84" x1="115.041" y1="157" x2="203.073" y2="157" gradientUnits="userSpaceOnUse">
<stop stop-color="#6000E2"/>
<stop offset="0.63" stop-color="#881FE4"/>
<stop offset="1" stop-color="#9A2EE5"/>
</linearGradient>
</defs>
</svg>
