<svg width="60" height="60" viewBox="0 0 60 60" fill="none" xmlns="http://www.w3.org/2000/svg">
<path d="M22.1591 0H59.4628V41.2822C59.4628 46.104 57.5473 50.7283 54.1375 54.1378C50.7278 57.5474 46.1033 59.4628 41.2812 59.4628H0V22.1578C0 16.2812 2.33461 10.6453 6.49025 6.48988C10.6459 2.33448 16.2821 0 22.1591 0Z" fill="url(#paint0_linear_45_6)"/>
<path d="M51.1172 29.7314C48.9153 33.3871 45.7859 36.4155 42.0363 38.5189C38.2868 40.6223 34.0462 41.7283 29.7314 41.7283C25.4166 41.7283 21.176 40.6223 17.4265 38.5189C13.6769 36.4155 10.5475 33.3871 8.34566 29.7314C10.5475 26.0757 13.6769 23.0474 17.4265 20.944C21.176 18.8406 25.4166 17.7345 29.7314 17.7345C34.0462 17.7345 38.2868 18.8406 42.0363 20.944C45.7859 23.0474 48.9153 26.0757 51.1172 29.7314Z" fill="white"/>
<path d="M30.253 38.5987C34.8622 38.5987 38.5987 34.6287 38.5987 29.7314C38.5987 24.8341 34.8622 20.8641 30.253 20.8641C25.6438 20.8641 21.9074 24.8341 21.9074 29.7314C21.9074 34.6287 25.6438 38.5987 30.253 38.5987Z" fill="url(#paint1_linear_45_6)"/>
<path d="M35.4691 29.2098C37.1975 29.2098 38.5987 28.0422 38.5987 26.6018C38.5987 25.1614 37.1975 23.9938 35.4691 23.9938C33.7406 23.9938 32.3394 25.1614 32.3394 26.6018C32.3394 28.0422 33.7406 29.2098 35.4691 29.2098Z" fill="white"/>
<defs>
<linearGradient id="paint0_linear_45_6" x1="0" y1="29.7314" x2="59.4628" y2="29.7314" gradientUnits="userSpaceOnUse">
<stop stop-color="#6000E2"/>
<stop offset="0.63" stop-color="#881FE4"/>
<stop offset="1" stop-color="#9A2EE5"/>
</linearGradient>
<linearGradient id="paint1_linear_45_6" x1="21.9074" y1="29.7314" x2="38.5987" y2="29.7314" gradientUnits="userSpaceOnUse">
<stop stop-color="#6000E2"/>
<stop offset="0.63" stop-color="#881FE4"/>
<stop offset="1" stop-color="#9A2EE5"/>
</linearGradient>
</defs>
</svg>
