<svg width="111" height="111" viewBox="0 0 111 111" fill="none" xmlns="http://www.w3.org/2000/svg">
<path d="M55.5 1.73438C25.7971 1.73438 1.73438 25.8006 1.73438 55.5C1.73438 85.1994 25.8006 109.266 55.5 109.266C85.2029 109.266 109.266 85.1994 109.266 55.5C109.266 25.8006 85.1994 1.73438 55.5 1.73438ZM81.9076 38.569L73.0831 80.1524C72.431 83.1008 70.6758 83.8154 68.2268 82.4279L54.7854 72.5212L48.3023 78.7649C47.5878 79.4795 46.9808 80.0865 45.5933 80.0865L46.5472 66.4057L71.4563 43.9005C72.542 42.9466 71.2169 42.4055 69.7843 43.3594L38.9992 62.7393L25.7312 58.5976C22.8487 57.6888 22.7827 55.7151 26.3382 54.3276L78.1752 34.3372C80.5825 33.47 82.6846 34.9234 81.9041 38.5656L81.9076 38.569Z" fill="#7A14E3"/>
</svg>
