<svg width="386" height="70" viewBox="0 0 386 70" fill="none" xmlns="http://www.w3.org/2000/svg">
<path d="M35.592 58.5849L35.5103 69.7776H14.2567C11.0777 69.7917 7.99646 68.6786 5.55912 66.6358C2.98473 64.595 1.14753 61.7677 0.327476 58.5849C0.101459 57.6863 -0.00842541 56.7624 0.000503389 55.8358L0.49095 8.38125C0.419872 7.25704 0.598534 6.13102 1.01408 5.08415C1.42962 4.03729 2.07172 3.09555 2.89424 2.32668C4.61784 0.774278 6.87065 -0.0573475 9.18857 0.00307633H36.1479L36.0662 11.1139H14.0932C12.5891 11.1139 11.8371 11.8176 11.8371 13.2085L11.5101 55.1158C11.4837 55.3551 11.4837 55.5965 11.5101 55.8358C11.639 56.6452 12.0666 57.3767 12.7083 57.8857C13.3501 58.3948 14.1594 58.6443 14.9761 58.5849H35.592Z" fill="white"/>
<path d="M81.6256 58.606V69.7504H58.2991C55.0782 69.9539 51.8878 69.0201 49.2799 67.1108C46.8419 64.8554 45.1876 61.8748 44.5594 58.606C44.341 57.7105 44.2374 56.7906 44.2512 55.8688L44.4134 28.9203C44.349 27.8088 44.5211 26.6963 44.9183 25.6568C45.3155 24.6173 45.9286 23.6748 46.7169 22.8919C48.4187 21.3414 50.6489 20.5072 52.9459 20.5621H70.4489C73.6037 20.6228 76.6563 21.6962 79.1599 23.6251C81.8214 25.4848 83.6775 28.2928 84.3508 31.4782C84.3508 32.0648 84.4481 32.6024 84.513 33.1075C84.5628 33.5566 84.5899 34.008 84.5941 34.4599L84.7401 39.2012C84.8701 40.9961 84.3771 42.7808 83.345 44.2519C82.2931 45.6381 80.8262 46.649 79.1599 47.1358L55.5901 54.9237L55.6711 56.9277V57.2536C55.7333 57.6392 55.9313 57.9895 56.2291 58.2407C56.5268 58.4919 56.9045 58.6273 57.2933 58.6223L81.6256 58.606ZM73.1579 35.1768C73.1731 34.9295 73.1457 34.6814 73.0768 34.4436C72.897 33.6611 72.463 32.961 71.8433 32.4536C71.2236 31.9462 70.4534 31.6604 69.6541 31.6412H57.9097C56.3687 31.6412 55.6387 32.3418 55.7523 33.7267V42.3131L71.9738 36.9364C72.406 36.8282 72.7836 36.5643 73.0348 36.1949C73.286 35.8254 73.3933 35.3761 73.3364 34.9323L73.1579 35.1768Z" fill="white"/>
<path d="M107.164 69.7286C103.998 69.7304 100.934 68.6169 98.511 66.5846C95.93 64.5383 94.086 61.7108 93.2569 58.5282C93.1584 57.9878 93.0598 57.4965 92.9777 57.0708C92.8988 56.6441 92.8603 56.211 92.8628 55.7772L93.339 20.3744H104.832L104.504 56.8743L104.586 57.2018C104.649 57.5893 104.849 57.9413 105.151 58.1937C105.452 58.4462 105.835 58.5823 106.228 58.5772H125.127L125.521 20.4235H137.113L136.554 69.7778L107.164 69.7286ZM101.91 3.11508C102.944 3.55721 104.061 3.96661 105.276 4.37599C106.491 4.78536 107.706 5.14557 108.954 5.4567C110.202 5.76782 111.384 6.04628 112.549 6.25916C113.598 6.47251 114.665 6.58212 115.735 6.58658C118.198 6.56934 120.648 6.23361 123.025 5.58772C125.35 4.98673 127.619 4.18681 129.806 3.19694L129.56 10.3037C128.328 10.9424 127.163 11.4827 126.095 11.9412C125.028 12.3704 123.93 12.7207 122.812 12.9893C121.734 13.2673 120.636 13.4589 119.528 13.5623C118.395 13.6606 117.18 13.7262 115.883 13.7262C113.516 13.6751 111.165 13.3229 108.888 12.6781C106.4 12.0184 103.955 11.2091 101.565 10.2547L101.91 3.11508Z" fill="white"/>
<path d="M145.215 69.6918L145.608 21.1825L172.401 21.2635C174.256 21.2464 176.093 21.6213 177.789 22.3632C179.485 23.1051 181 24.1967 182.233 25.5646C184.019 27.3663 185.301 29.595 185.952 32.0325C186.095 32.5235 186.188 33.0272 186.231 33.5362C186.231 34.0213 186.231 34.5226 186.346 35.0562V40.1497C186.374 41.2067 186.188 42.2585 185.8 43.244C185.411 44.2295 184.828 45.1289 184.084 45.89C184.851 47.1165 185.405 48.461 185.723 49.8677C185.951 50.779 186.082 51.711 186.116 52.6489V61.4938C186.12 62.6012 185.902 63.6983 185.474 64.7222C185.047 65.7461 184.418 66.6766 183.626 67.4603C181.919 69.02 179.658 69.8512 177.333 69.7727L145.215 69.6918ZM172.253 58.6155C173.81 58.6155 174.547 57.9202 174.433 56.5458V54.5407C174.404 53.6849 174.06 52.8687 173.466 52.2446C172.778 51.5715 171.861 51.174 170.893 51.1289C170.451 51.1289 170.205 51.1289 170.156 51.1289L156.849 55.5756V58.6155H172.253ZM173.302 37.7404C173.743 37.6613 174.139 37.4211 174.409 37.0676C174.679 36.714 174.805 36.273 174.76 35.8323L174.596 33.8435C174.597 33.6198 174.551 33.3984 174.46 33.1933C174.37 32.9882 174.237 32.8038 174.071 32.6519C173.905 32.4999 173.708 32.3836 173.494 32.3104C173.28 32.2372 173.053 32.2086 172.827 32.2265H157.013L156.931 43.1249L173.302 37.7404Z" fill="white"/>
<path d="M223.867 69.7778L224.362 11.1932H206.643L205.999 69.7778H194.451L195.177 0H236.208L235.548 69.7778H223.867Z" fill="white"/>
<path d="M244.407 58.674H249.286L249.448 28.9225C249.406 27.8048 249.598 26.6907 250.013 25.6525C250.427 24.6144 251.055 23.6756 251.855 22.8971C253.561 21.3431 255.796 20.5071 258.099 20.5621H284.197V22.5378C284.197 23.2073 284.197 24.1708 284.197 25.4281C284.197 26.6854 284.197 28.3674 284.197 30.4575C284.197 32.5476 284.197 35.3562 284.116 38.7853C284.035 42.2144 284.116 46.4926 284.116 51.5219V69.7778H272.652L272.896 31.6658H263.058C261.562 31.6658 260.863 32.3679 260.961 33.7559L260.733 69.7778H244.31L244.407 58.674Z" fill="white"/>
<path d="M330.238 58.606V69.7503H306.56C303.291 69.9539 300.052 69.0201 297.405 67.1108C294.936 64.8511 293.257 61.8724 292.613 58.606C292.392 57.7105 292.286 56.7907 292.3 55.8688L292.465 28.9205C292.4 27.809 292.574 26.6965 292.978 25.657C293.381 24.6175 294.003 23.675 294.803 22.8922C296.536 21.3391 298.806 20.5049 301.143 20.5623H318.893C322.095 20.6231 325.194 21.6965 327.735 23.6254C330.437 25.485 332.321 28.293 333.004 31.4784C333.004 32.065 333.103 32.6026 333.169 33.1077C333.219 33.5568 333.247 34.0082 333.251 34.46L333.416 39.2013C333.535 40.9973 333.029 42.7795 331.983 44.252C330.916 45.6382 329.427 46.6491 327.735 47.1359L303.81 54.9238V56.9278L303.892 57.2537C303.956 57.6392 304.157 57.9896 304.459 58.2408C304.761 58.492 305.144 58.6273 305.539 58.6223L330.238 58.606ZM321.643 35.1769C321.658 34.9297 321.63 34.6816 321.56 34.4437C321.378 33.6613 320.937 32.9611 320.308 32.4538C319.679 31.9464 318.897 31.6606 318.086 31.6414H306.165C304.6 31.6414 303.86 32.3419 303.975 33.7268V42.3132L320.441 36.9366C320.878 36.8283 321.26 36.5637 321.512 36.1937C321.765 35.8238 321.87 35.3745 321.807 34.9325L321.643 35.1769Z" fill="white"/>
<path d="M355.635 69.7778C352.518 69.7827 349.501 68.6678 347.12 66.6315C344.566 64.5894 342.741 61.7582 341.924 58.569C341.827 58.0283 341.729 57.5366 341.649 57.1106C341.571 56.6836 341.533 56.2502 341.535 55.816L342.005 20.3871H353.336L353.013 56.8647L353.093 57.1925C353.156 57.5802 353.353 57.9326 353.65 58.1853C353.947 58.4379 354.324 58.5741 354.712 58.569H373.296L373.685 20.3871H385.162L384.612 69.7778H355.635ZM350.455 3.11508C351.475 3.55753 352.575 3.96724 353.773 4.37692C354.971 4.7866 356.169 5.14707 357.399 5.45842C358.63 5.76978 359.795 6.04844 360.945 6.26148C361.978 6.47404 363.03 6.58373 364.085 6.58914C366.514 6.573 368.93 6.237 371.273 5.58955C373.565 4.98811 375.802 4.1876 377.958 3.197L377.732 10.309C376.501 10.9481 375.352 11.4889 374.3 11.9477C373.247 12.3772 372.165 12.7277 371.062 12.9965C370 13.2748 368.917 13.4665 367.825 13.5701C366.708 13.6684 365.51 13.734 364.231 13.734C361.897 13.6829 359.58 13.3304 357.335 12.6852C354.887 12.025 352.482 11.2151 350.131 10.2599L350.455 3.11508Z" fill="white"/>
</svg>
